# xmcd CD database file
#
# Track frame offsets:
#	150
#	20075
#	43335
#	67852
#	92815
#
# Disc length: 1485 seconds
#
# Revision: 1
# Processed by: cddbd v1.5.2PL0 Copyright (c) Steve Scherf et al.
# Submitted via: CDex 1.70beta3
#
DISCID=3e05cb05
DTITLE=orange pekoe - orangepekoe in autumn
DYEAR=2004
DGENRE=Jazz
TTITLE0=輪舞 (with OP's)
TTITLE1=煙のセレナード (with OP's)
TTITLE2=STORY (with OP's)
TTITLE3=Calling you
TTITLE4=輪舞 from "Poetic Ore"
EXTD=YEAR: 2004
EXTT0=
EXTT1=
EXTT2=
EXTT3=
EXTT4=
PLAYORDER=
